<svg id="Calque_1" data-name="Calque 1" xmlns="http://www.w3.org/2000/svg" viewBox="0 0 149.03 147.5"><defs><style>.cls-1{fill:#707070;}.cls-2{opacity:0.15;}.cls-3{fill:#3ab98d;}</style></defs><title>magnifying glass</title><path class="cls-1" d="M112.73,122.79l24,23.51c6.89,6.77,17.51-3.83,10.6-10.6l-24-23.51c-6.9-6.77-17.51,3.83-10.61,10.6Z" transform="translate(-0.52 -0.98)"/><g class="cls-2"><ellipse class="cls-3" cx="55.8" cy="56.9" rx="52.2" ry="51.59" transform="translate(-1.71 111.63) rotate(-89.91)"/></g><path class="cls-3" d="M91.32,105.23l15.93,15.13A9,9,0,1,0,120,107.64L104,92.5a9,9,0,0,0-12.72,12.73Z" transform="translate(-0.52 -0.98)"/><path class="cls-1" d="M55.8,8h.08A47.65,47.65,0,0,1,90,22.33,48.93,48.93,0,0,1,104.08,57c0,26.94-21.7,48.85-48.28,48.85h-.08A47.67,47.67,0,0,1,21.63,91.48,49,49,0,0,1,7.52,56.83C7.56,29.89,29.22,8,55.8,8m0-7C25.31,1,.57,26,.52,56.82s24.66,56,55.19,56h.09c30.49,0,55.23-25,55.28-55.84S86.42,1,55.89,1Z" transform="translate(-0.52 -0.98)"/></svg>